<svg width="110" height="20" viewBox="0 0 110 20" fill="none" xmlns="http://www.w3.org/2000/svg">
<g clip-path="url(#clip0_75_91)">
<path d="M78.7018 0.715364V19.3184H76.397L76.0536 16.1669C75.0141 18.3212 72.4365 19.7793 69.5202 19.7793C65.1364 19.7793 62.7563 16.7831 62.7563 12.2441V0.677734H65.4468V11.4021C65.4468 15.8235 67.4083 17.3993 70.3669 17.3993C73.9417 17.3993 76.0583 15.0145 76.0583 10.5931V0.715364H78.7112H78.7018Z" fill="white"/>
<path d="M84.8872 19.3231V0.715386H87.192L87.5777 3.94681C88.8054 1.56205 91.2654 0.216797 93.9606 0.216797C99.0735 0.216797 101.185 3.25537 101.185 7.94493V19.3231H98.5325V8.52348C98.5325 4.18199 96.5711 2.64389 93.4996 2.64389C89.6944 2.64389 87.5401 5.40965 87.5401 9.60062V19.3231H84.8872Z" fill="white"/>
<path d="M107.018 0.714844H109.671V19.3179H107.018V0.714844Z" fill="white"/>
<path d="M8.30198 0H11.9379L20.1176 20H15.682L10.0611 5.85607L4.32738 20H0L8.30198 0Z" fill="white"/>
<path d="M46.6321 0H50.268L58.4477 20H54.0121L48.3912 5.85607L42.6575 20H38.3301L46.6321 0Z" fill="white"/>
<path d="M19.1675 0H23.603L29.2239 14.1439L34.9577 0H39.2851L30.9784 20H27.3425L19.1675 0Z" fill="white"/>
</g>
<defs>
<clipPath id="clip0_75_91">
<rect width="109.675" height="20" fill="white"/>
</clipPath>
</defs>
</svg>
