<svg width="178" height="33" viewBox="0 0 178 33" fill="none" xmlns="http://www.w3.org/2000/svg">
<g clip-path="url(#clip0_170_90)">
<path d="M127.57 1.43911V31.2039H123.834L123.278 26.1616C121.593 29.6084 117.415 31.9415 112.687 31.9415C105.582 31.9415 101.724 27.1475 101.724 19.885V1.37891H106.085V18.5379C106.085 25.6122 109.264 28.1334 114.06 28.1334C119.854 28.1334 123.285 24.3178 123.285 17.2434V1.43911H127.586H127.57Z" fill="#121A3A"/>
<path d="M137.597 31.2117V1.43934H141.333L141.958 6.60962C143.948 2.794 147.935 0.641602 152.304 0.641602C160.592 0.641602 164.015 5.50331 164.015 13.0066V31.2117H159.715V13.9323C159.715 6.98591 156.536 4.52495 151.557 4.52495C145.389 4.52495 141.897 8.95016 141.897 15.6557V31.2117H137.597Z" fill="#121A3A"/>
<path d="M173.47 1.43848H177.77V31.2033H173.47V1.43848Z" fill="#121A3A"/>
<path d="M13.457 0.293945H19.3507L32.6095 32.2939H25.4197L16.3086 9.66365L7.01443 32.2939H0L13.457 0.293945Z" fill="#121A3A"/>
<path d="M75.5879 0.293945H81.4816L94.7404 32.2939H87.5506L78.4394 9.66365L69.1453 32.2939H62.1309L75.5879 0.293945Z" fill="#121A3A"/>
<path d="M31.0693 0.293945H38.2591L47.3703 22.9242L56.6644 0.293945H63.6788L50.2142 32.2939H44.3205L31.0693 0.293945Z" fill="#121A3A"/>
</g>
<defs>
<clipPath id="clip0_170_90">
<rect width="177.778" height="32" fill="white" transform="translate(0 0.293945)"/>
</clipPath>
</defs>
</svg>
